<?xml version="1.0" encoding="UTF-8"?>
<svg width="16px" height="16px" viewBox="0 0 16 16" version="1.1" xmlns="http://www.w3.org/2000/svg" xmlns:xlink="http://www.w3.org/1999/xlink">
    <!-- Generator: Sketch 48.2 (47327) - http://www.bohemiancoding.com/sketch -->
    <title>Page 1</title>
    <desc></desc>
    <defs></defs>
    <g id="35-Content---our-fleet-Copy" stroke="none" stroke-width="1" fill="none" fill-rule="evenodd" transform="translate(-1169.000000, -502.000000)">
        <g id="Group" transform="translate(0.000000, -1573.000000)" fill="#949494">
            <g id="FOOTER" transform="translate(0.000000, 1649.000000)">
                <g id="Bottom-part">
                    <g transform="translate(0.000000, 2.000000)">
                        <g id="social-icons" transform="translate(993.000000, 424.000000)">
                            <g id="Page-1" transform="translate(176.000000, 0.000000)">
                                <polygon id="Fill-2" points="0.264 15.9866667 3.58133333 15.9866667 3.58133333 5.31786667 0.264 5.31786667"></polygon>
                                <g id="Group-7">
                                    <path d="M1.60022201,3.2 C2.48247537,3.2 3.2,2.48242962 3.2,1.59933435 C3.2,0.716682846 2.48247537,0 1.60022201,0 C0.715304565,0 0,0.716682846 0,1.59933435 C0,2.48242962 0.715304565,3.2 1.60022201,3.2" id="Fill-3"></path>
                                    <path d="M16,10.0055799 C16,7.06272559 15.4241089,4.8 12.3089493,4.8 C10.8115335,4.8 9.80632383,5.70574578 9.39532677,6.56451078 L9.35323671,6.56451078 L9.35323671,5.07205151 L6.4,5.07205151 L6.4,16 L9.47802135,16 L9.47802135,10.593386 C9.47802135,9.16812018 9.7221437,7.78764999 11.3245371,7.78764999 C12.9016764,7.78764999 12.9244545,9.41777388 12.9244545,10.6851624 L12.9244545,16 L16,16 L16,10.0055799 Z" id="Fill-5"></path>
                                </g>
                            </g>
                        </g>
                    </g>
                </g>
            </g>
        </g>
    </g>
</svg>
