<?xml version="1.0" encoding="UTF-8"?>
<svg width="19px" height="13px" viewBox="0 0 19 13" version="1.1" xmlns="http://www.w3.org/2000/svg" xmlns:xlink="http://www.w3.org/1999/xlink">
    <!-- Generator: Sketch 48.2 (47327) - http://www.bohemiancoding.com/sketch -->
    <title>Page 1</title>
    <desc></desc>
    <defs>
        <polygon id="path-1" points="17.7272727 12.4678273 17.7272727 0.000236363636 0.000177272727 0.000236363636 0.000177272727 12.4678273 17.7272727 12.4678273"></polygon>
    </defs>
    <g id="35-Content---our-fleet-Copy" stroke="none" stroke-width="1" fill="none" fill-rule="evenodd" transform="translate(-1135.000000, -505.000000)">
        <g id="Group" transform="translate(0.000000, -1573.000000)">
            <g id="FOOTER" transform="translate(0.000000, 1649.000000)">
                <g id="Bottom-part">
                    <g transform="translate(0.000000, 2.000000)">
                        <g id="social-icons" transform="translate(993.000000, 424.000000)">
                            <g id="Page-1" transform="translate(142.833333, 3.000000)">
                                <mask id="mask-2" fill="white">
                                    <use xlink:href="#path-1"></use>
                                </mask>
                                <g id="Clip-2"></g>
                                <path d="M7.03435909,8.53473636 L7.03317727,3.55219091 L11.8230864,6.05232727 L7.03435909,8.53473636 Z M17.5495864,2.69005455 C17.5495864,2.69005455 17.37645,1.46805455 16.8458136,0.930327273 C16.1715864,0.224190909 15.4158136,0.220645455 15.0707227,0.179872727 C12.5877227,0.000236363636 8.86854091,0.000236363636 8.86854091,0.000236363636 L8.86026818,0.000236363636 C8.86026818,0.000236363636 5.13813182,0.000236363636 2.65808636,0.179872727 C2.31181364,0.220645455 1.55663182,0.224190909 0.881813636,0.930327273 C0.350586364,1.46805455 0.17745,2.69005455 0.17745,2.69005455 C0.17745,2.69005455 0.000177272727,4.1236 0.000177272727,5.55950909 L0.000177272727,6.90382727 C0.000177272727,8.33855455 0.17745,9.77328182 0.17745,9.77328182 C0.17745,9.77328182 0.350586364,10.9952818 0.881813636,11.5330091 C1.55663182,12.2397364 2.44299545,12.2161 2.83654091,12.2899636 C4.25531364,12.4264636 8.86381364,12.4678273 8.86381364,12.4678273 C8.86381364,12.4678273 12.5877227,12.4619182 15.0707227,12.2834636 C15.4158136,12.2426909 16.1715864,12.2397364 16.8458136,11.5330091 C17.37645,10.9952818 17.5495864,9.77328182 17.5495864,9.77328182 C17.5495864,9.77328182 17.72745,8.33855455 17.72745,6.90382727 L17.72745,5.55950909 C17.72745,4.1236 17.5495864,2.69005455 17.5495864,2.69005455 Z" id="Fill-1" fill="#949494" mask="url(#mask-2)"></path>
                            </g>
                        </g>
                    </g>
                </g>
            </g>
        </g>
    </g>
</svg>
