<?xml version="1.0" encoding="UTF-8"?>
<svg width="140px" height="40px" viewBox="0 0 140 40" version="1.1" xmlns="http://www.w3.org/2000/svg" xmlns:xlink="http://www.w3.org/1999/xlink">
    <title>Logos/United Logo_Rebrand_Small</title>
    <defs>
        <polygon id="path-1" points="0 0 39.9250862 0 39.9250862 40 0 40"></polygon>
    </defs>
    <g id="Logos/United-Logo_Rebrand_Small" stroke="none" stroke-width="1" fill="none" fill-rule="evenodd">
        <g id="Group">
            <g id="united_globe_4p_h_rgb_r_21Apr2022">
                <mask id="mask-2" fill="white">
                    <use xlink:href="#path-1"></use>
                </mask>
                <g id="Clip-2"></g>
                <path d="M8.83960115,5.10727283 C5.81940286,5.10727283 2.85272073,5.62791643 0.0221141142,6.654573 L-0.00884564568,6.66580459 L-0.00884564568,7.72763379 C0.162317598,7.66098313 0.45569818,7.56270667 0.883827431,7.46324793 C1.09980861,7.41551364 1.31387324,7.3720651 1.52528417,7.33630133 C1.59590191,7.32433081 1.67462815,7.31369036 1.750111,7.30245876 C4.52263121,6.90506715 6.90874413,7.47019378 8.34247587,9.11946502 C11.4794367,12.7268764 8.87999627,20.1370698 2.5364889,25.6701088 C1.72814431,26.3750393 0.898422746,27.0134668 0.0586761163,27.5868694 C0.0364145747,27.6017956 0.0138581782,27.6161306 -0.00884564568,27.6309091 L-0.00884564568,29.3975209 C0.246056377,29.2213622 0.50036869,29.0419522 0.752911875,28.8545619 C1.09789206,29.4394916 3.39481138,33.1159182 3.43550135,33.1778398 C3.60636974,33.067445 4.10157847,32.7510391 4.70175553,32.3424159 C5.39289531,31.8665509 6.21067526,31.2727541 6.97007394,30.6417158 C7.00412967,30.6120112 7.03789056,30.5821588 7.07032459,30.5528975 L3.56214151,26.5206067 C3.9178839,26.1706538 5.1052644,24.987346 6.04821023,23.8619696 C6.26890909,24.0332514 9.19239499,26.3039551 10.3609048,27.3547005 C11.2874862,26.343709 12.1279699,25.2975449 12.8720362,24.2317256 C11.2605069,23.1719653 7.91434661,21.2580127 7.91434661,21.2580127 C8.47206457,20.37382 8.9489923,19.4880018 9.33908528,18.6131195 C9.33908528,18.6131195 13.2419316,20.1425378 14.8334107,20.9278629 C15.2519571,20.0766261 15.605783,19.2222859 15.8886962,18.3716402 C15.9302707,18.2458759 15.9702236,18.1209983 16.0087021,17.9968596 C14.0321426,17.194096 10.5034671,16.3511352 10.183697,16.2756175 C10.3923068,15.5117211 10.5282349,14.7667412 10.5857316,14.051318 C13.4419906,14.3353592 16.0595646,14.990782 16.6013604,15.1319158 C16.6817083,14.3037334 16.6715358,13.5188517 16.5696635,12.7861378 C13.3815454,12.2108141 10.8783751,12.206085 10.5516759,12.2084496 C10.479289,11.6411062 10.3473415,11.101694 10.1524424,10.5973066 C10.154359,10.5973066 12.9811325,10.3493248 15.9366101,10.6957309 C15.7835804,10.388931 15.58647,10.0395692 15.3934875,9.75818817 C15.2407526,9.5348863 14.900785,9.11961281 14.900785,9.11961281 C14.900785,9.11961281 12.4023324,8.93104022 9.50671026,9.36582122 C9.23028384,8.96813404 8.92260279,8.63709752 8.61315262,8.3620712 C8.67227102,8.34817948 10.8592095,7.83980197 13.5008141,7.84970351 C12.7729649,7.34901077 12.0175468,7.01294959 12.0175468,7.01294959 L12.0175468,7.01265402 C9.97317065,7.05270353 7.82928099,7.62285482 7.65870745,7.66881569 C7.07489484,7.32551309 6.62008122,7.18703933 6.56317424,7.1704875 C6.56155254,7.16974858 6.55993083,7.16915745 6.5581617,7.16841852 C6.55993083,7.16782739 6.56066797,7.1667929 6.56228967,7.16620176 C6.72681868,7.11580736 8.30576644,6.63728225 9.46307174,6.51137014 C9.46307174,6.51137014 9.46071291,6.51092679 9.45850149,6.51092679 C7.88382914,6.30417675 5.71723566,6.79925369 5.46719874,6.85821957 C5.12841051,6.79068221 4.65900158,6.72905621 4.31416882,6.6965437 C4.31416882,6.6965437 5.48120434,6.35797018 7.02462209,6.14117082 C8.43004776,5.94402675 13.1421232,5.36367835 16.1528861,9.42552602 C19.0036903,13.2719044 17.9672755,19.2412022 14.0978952,24.9659173 C13.0771077,26.5031681 11.8539023,28.0201725 10.4452333,29.4683095 C9.25976932,30.7027506 8.05912035,31.7718213 6.91419894,32.6832062 C5.1278208,34.114348 3.20846311,35.3530748 1.23057674,36.329337 C0.818074798,36.5490921 0.404540862,36.7555465 -0.00884564568,36.9550551 L-0.00884564568,38.8161011 C3.29854127,37.2472244 5.25770436,35.7532743 5.25770436,35.7532743 L8.04216619,39.7155155 C8.04216619,39.7155155 10.199914,38.3618126 12.364591,36.5753976 L12.3648858,36.5751021 C12.364591,36.5748065 12.3642961,36.5748065 12.3640012,36.5743631 L9.02698141,32.7885763 C9.02668656,32.7882807 9.0263917,32.7879851 9.0263917,32.7879851 C10.2997224,31.6555151 11.4633671,30.4726507 12.5080378,29.258456 C12.5080378,29.258456 15.9696338,32.3385735 16.3485223,32.701827 C17.4467093,31.4607356 18.4557026,30.1550625 19.3504396,28.7958916 C17.5491713,27.3619419 15.2009472,25.7460699 15.1655647,25.7215377 L15.1642378,25.7205032 L15.1642378,25.7207988 L15.163943,25.7205032 C15.163943,25.7205032 16.5749709,23.4592578 17.1484636,22.0786581 C17.1484636,22.0786581 19.431967,23.3280254 21.5892725,24.7331572 C22.1169153,23.5499972 22.5561016,22.3214675 22.8687952,21.0672233 C21.4523125,20.2105185 18.3003141,18.7996232 18.3003141,18.7996232 C18.570696,17.7374984 18.7313919,16.6979846 18.7775366,15.6948257 C18.7775366,15.6948257 21.0691486,16.4235494 23.3780095,17.5840984 C23.413687,16.6107919 23.3520623,15.6490126 23.182963,14.7185635 C21.2282228,13.7777696 18.6268658,13.1394898 18.6268658,13.1394898 C18.4890212,12.3535736 18.2641943,11.5979532 17.9501739,10.8924316 C17.9501739,10.8924316 20.3162367,11.3357841 22.4055782,12.1861342 C21.8817686,11.0269152 21.241049,10.3661722 21.241049,10.3661722 C19.9025553,9.63050265 16.8541984,9.07306079 16.8541984,9.07306079 C16.5244033,8.65350156 16.1477262,8.25197199 15.7514413,7.90305359 C16.7101618,8.03561598 18.2046337,8.37581512 18.2046337,8.37581512 C16.5617024,7.57024366 14.7095716,7.10472355 14.6876049,7.09940332 C14.6852461,7.0977777 14.3203632,6.85748065 13.881914,6.62324275 C13.881914,6.62324275 18.4760476,7.56669684 20.972731,9.45330944 C21.1991796,9.62459128 21.4147185,9.81508507 21.6355648,10.0264164 C21.8873708,10.267748 22.1068902,10.5387841 22.3010522,10.8049434 C27.2737793,17.6257736 22.9724367,30.7713225 10.8512484,39.9645318 L15.3604637,39.9645318 C15.1129331,39.6895055 14.5080383,39.0172353 14.440664,38.9414221 C15.8599478,37.6301332 17.1965249,36.2054939 18.4153075,34.6933663 L21.4157505,37.6882124 L21.4161927,37.6870301 C22.5914842,36.3463322 23.6812678,34.9125302 24.6442637,33.4063141 C24.6442637,33.4063141 23.0679697,31.8901964 21.3906878,30.4274287 C22.7378796,28.2455434 23.5695178,26.0716384 23.5695178,26.0716384 C23.6980745,26.1669592 25.331423,27.3833706 27.0069357,28.9467792 C27.81587,27.1699703 28.3169758,24.910646 28.3169758,24.910646 C26.5711402,23.3163505 24.7794547,22.1788558 24.7794547,22.1788558 C25.0477726,20.9733804 25.2167244,19.7334713 25.2515173,18.5089317 C25.2515173,18.5089317 27.1490557,19.6382983 28.7884487,21.0840707 C28.8036337,20.0130789 28.7107545,18.9434171 28.4856328,17.8991743 C26.8589185,16.4870966 25.0519005,15.5420169 25.0519005,15.5420169 C25.0514583,15.5400957 24.8776413,14.3563446 24.2989887,12.9269762 C24.3031166,12.9293407 24.3076869,12.9314097 24.3119623,12.9333309 C24.4237123,12.9890455 25.2860153,13.4291467 26.8089406,14.5166904 C25.6217076,12.9717548 23.5767417,11.4513513 23.5767417,11.4513513 C23.3814004,11.118098 23.1558364,10.7895738 22.9090429,10.4705078 C24.5886836,11.620712 26.1213391,12.9721981 27.4747229,14.4884636 C27.9765659,15.119502 28.4380137,15.9227089 28.7937561,16.8439953 C28.8913531,17.0958196 28.9752393,17.3464615 29.0495427,17.5948867 C30.1626198,21.3614616 29.4784091,25.5959212 28.2214428,29.0630854 C26.7728209,33.0593169 24.3613505,36.7916059 21.5311861,39.9645318 L26.869091,39.9645318 C27.3855293,39.2293056 27.8506628,38.5285131 28.3278854,37.7236806 C27.9714059,37.1805738 26.3471979,35.2754881 26.3471979,35.2754881 C27.2410504,33.8097648 28.0460042,32.2247797 28.6818587,30.6492528 C28.6818587,30.6492528 29.7683988,31.8538415 30.6190551,33.0938984 C31.4549686,31.0884673 31.845209,28.9952524 31.845209,28.9952524 C31.2715689,28.0355421 29.9899822,26.5477989 29.9899822,26.5477989 C30.2628704,25.2835054 30.4325594,23.9748767 30.4554106,22.6668391 C31.0970148,23.43443 31.9622664,24.6489203 31.9622664,24.6489203 C31.9622664,24.6489203 31.9618241,24.6459646 31.9615292,24.641531 C31.7980322,22.2623538 30.5735,20.0983504 30.3019387,19.644653 C30.2944199,19.5995788 30.2858691,19.5511056 30.2752543,19.4962777 C30.115443,18.6713465 29.8267801,17.7481388 29.6762567,17.2928158 C31.0541134,19.3309072 31.9391203,21.6211184 31.9391203,21.6211184 C32.5062736,23.0946742 32.845799,24.9557202 32.845799,26.9812499 C32.845799,28.0535718 32.6314395,33.6500102 28.3671011,39.9645318 L29.7162095,39.9645318 C30.5073051,38.4797443 31.3844983,36.6337724 31.9715543,35.0657824 C31.9718492,35.0663736 31.972144,35.0674081 31.9724389,35.0682948 C31.9913096,35.1183936 32.283953,35.8938171 32.5018508,36.6993885 C32.9546004,35.0956348 33.2780562,33.4281861 33.4571805,31.7118209 L33.4574754,31.7107864 C33.4013055,31.4882234 33.2808573,31.1276301 33.2128932,30.907875 C33.2128932,30.907875 33.5021459,29.4507232 33.6168444,27.7880036 C33.7728226,28.9291929 33.8539077,30.0887074 33.8539077,31.2609314 C33.8539077,33.2916336 33.614633,35.2847986 33.1515634,37.2093917 C32.9133207,38.1578704 32.6230361,39.0906841 32.3078363,39.9645318 L33.4593919,39.9645318 C34.4169331,37.1941699 34.9118469,34.2752849 34.9118469,31.3411782 C34.9118469,16.8757689 23.2156919,5.10727283 8.83960115,5.10727283 Z M-0.00884564568,22.3894482 L-0.00884564568,25.8775978 C0.606958721,25.477546 1.22408993,25.0315334 1.82972181,24.5425157 L-0.00884564568,22.3894482 Z M0.829868992,7.94531986 C0.54282779,8.13817819 0.264189951,8.34345039 -0.00884564568,8.55936305 L-0.00884564568,9.3706981 C0.71192705,8.7968522 1.63585474,8.17556758 2.43668053,7.71743668 C1.91921026,7.75113147 1.38242699,7.82679696 0.829868992,7.94531986 Z M3.18074676,21.6855523 C2.24060205,21.0261393 -0.0063393794,19.4526814 -0.00884564568,19.4509079 L-0.00884564568,17.5413888 C1.61211892,15.2285667 1.84652854,12.5742154 0.423559,11.2784438 C0.289694896,11.1565219 0.144921162,11.0524819 -0.00884564568,10.9621857 L-0.00884564568,10.0108991 L0.0160695896,10.0255297 C0.0160695896,10.0255297 2.04820926,8.41320451 3.66268702,7.71832339 C4.05189543,7.74655016 4.42473939,7.8012303 4.77974464,7.88280716 C2.36724221,8.90872481 0.586024026,10.1811464 0.462627269,10.2704081 C0.710305348,10.4174533 0.936164167,10.6017402 0.96579708,10.6259768 C0.996904268,10.6063215 3.33584041,9.14000702 5.91007073,8.26113461 C6.25917888,8.42118486 6.59678769,8.62039791 6.888694,8.84576875 C4.08580374,9.63537953 1.39127264,11.0453882 1.39127264,11.0453882 C1.54312289,11.2224336 1.67698699,11.4139619 1.79271752,11.6187908 C1.8108511,11.6115493 1.82765782,11.604899 1.84048401,11.599431 C4.70942176,10.3686845 7.75763126,9.73779395 7.75763126,9.73779395 C7.99602141,10.0652837 8.19239474,10.4307539 8.34247587,10.8336135 C8.34247587,10.8336135 5.60681251,11.1472115 2.08757238,12.2784993 C2.24296089,12.7660392 2.28556742,13.1325439 2.28586227,13.1357952 C2.28586227,13.1357952 5.60356911,12.3918497 8.66313052,12.3093861 C8.70588447,12.8020985 8.69055202,13.3551069 8.62022914,13.922598 C6.8080512,13.8268339 2.49181839,14.0570816 2.32227684,14.0703822 C2.32227684,14.0703822 2.30664954,14.693588 2.14506908,15.2802911 C2.14506908,15.2802911 5.29883662,15.3816711 8.16762694,15.917832 C7.94574866,16.6065062 7.66254057,17.2854266 7.32655346,17.9485342 C5.414862,17.3729149 2.51334279,16.673748 1.750111,16.4980326 C1.54901999,16.9941441 1.29677166,17.4862653 0.99734655,17.9628692 C0.99734655,17.9628692 4.54238648,19.5135684 5.90284679,20.2721445 L5.90579534,20.2721445 L5.9050582,20.2734746 C5.31461135,21.1600318 4.14403757,22.4002365 4.14403757,22.4002365 C3.80465963,22.1458999 3.48356269,21.9078196 3.18074676,21.6855523 L3.18074676,21.6855523 Z" id="Fill-1" fill="#FFFFFF" mask="url(#mask-2)"></path>
                <path d="M8.83960115,5.10727283 C23.2156919,5.10727283 34.9118469,16.8757689 34.9118469,31.341326 C34.9118469,34.2752849 34.4169331,37.1941699 33.4593919,39.9645318 L39.8589217,39.9645318 L39.8589217,0 L-0.00884564568,0 L-0.00884564568,6.66580459 L0.0222615416,6.654573 C2.85272073,5.62791643 5.81940286,5.10727283 8.83960115,5.10727283 Z M-0.00884564568,17.5413888 C1.61211892,15.2285667 1.84652854,12.5742154 0.423559,11.2784438 C0.289694896,11.1565219 0.144921162,11.0524819 -0.00884564568,10.9621857 L-0.00884564568,17.5413888 Z M8.34247587,9.11946502 C6.90874413,7.47019378 4.52263121,6.90506715 1.750111,7.30245876 C1.67462815,7.31369036 1.59590191,7.32433081 1.52528417,7.33630133 C1.31387324,7.3720651 1.09980861,7.41551364 0.883827431,7.46324793 C0.45569818,7.56270667 0.162317598,7.66098313 -0.00884564568,7.72763379 L-0.00884564568,8.55936305 C0.264189951,8.34359817 0.54282779,8.13817819 0.829868992,7.94531986 C1.38242699,7.82679696 1.91921026,7.75113147 2.43668053,7.71743668 C1.63585474,8.17556758 0.71192705,8.7968522 -0.00884564568,9.3706981 L-0.00884564568,10.0108991 L0.0160695896,10.0255297 C0.0160695896,10.0255297 2.04820926,8.41320451 3.66268702,7.71832339 C4.05189543,7.74655016 4.42473939,7.8012303 4.77974464,7.88280716 C2.36724221,8.90872481 0.586024026,10.1811464 0.462627269,10.2704081 C0.710305348,10.4174533 0.936164167,10.6017402 0.96579708,10.6259768 C0.996904268,10.6063215 3.33584041,9.14000702 5.91007073,8.26113461 C6.25917888,8.42133264 6.59678769,8.62039791 6.888694,8.84576875 C4.08580374,9.63537953 1.39127264,11.0453882 1.39127264,11.0453882 C1.54312289,11.2224336 1.67698699,11.4139619 1.79271752,11.6187908 C1.8108511,11.6115493 1.82765782,11.604899 1.84048401,11.599431 C4.70942176,10.3688323 7.75763126,9.73779395 7.75763126,9.73779395 C7.99602141,10.0652837 8.19239474,10.4307539 8.34247587,10.8336135 C8.34247587,10.8336135 5.60681251,11.1472115 2.08757238,12.2784993 C2.24296089,12.7660392 2.28556742,13.1325439 2.28586227,13.1357952 C2.28586227,13.1357952 5.60356911,12.3918497 8.66327795,12.3093861 C8.70588447,12.8020985 8.69055202,13.3551069 8.62022914,13.922598 C6.8080512,13.8268339 2.49181839,14.0570816 2.32227684,14.0703822 C2.32227684,14.0703822 2.30664954,14.693588 2.14506908,15.2802911 C2.14506908,15.2802911 5.29883662,15.3816711 8.16762694,15.917832 C7.94574866,16.6065062 7.66254057,17.2854266 7.32655346,17.9485342 C5.414862,17.3729149 2.51334279,16.673748 1.750111,16.4980326 C1.54901999,16.9941441 1.29677166,17.4862653 0.99734655,17.9628692 C0.99734655,17.9628692 4.54253391,19.5135684 5.90284679,20.2721445 L5.90579534,20.2721445 L5.9050582,20.2734746 C5.31475878,21.1600318 4.14403757,22.4002365 4.14403757,22.4002365 C3.80465963,22.1458999 3.48356269,21.9078196 3.18074676,21.6855523 C2.24060205,21.0261393 -0.0063393794,19.4526814 -0.00884564568,19.4509079 L-0.00884564568,22.3894482 L1.82972181,24.5425157 C1.22408993,25.0315334 0.606958721,25.477546 -0.00884564568,25.8775978 L-0.00884564568,27.6309091 C0.0138581782,27.6161306 0.0364145747,27.6017956 0.0586761163,27.5868694 C0.898422746,27.0134668 1.72814431,26.3750393 2.5364889,25.6701088 C8.87999627,20.1370698 11.4794367,12.7268764 8.34247587,9.11946502 Z M16.1528861,9.42552602 C13.1421232,5.36367835 8.43004776,5.94402675 7.02462209,6.14117082 C5.48120434,6.35797018 4.31416882,6.6965437 4.31416882,6.6965437 C4.65900158,6.72905621 5.12841051,6.79068221 5.46719874,6.85821957 C5.71723566,6.79925369 7.88382914,6.30417675 9.45850149,6.51092679 C9.46071291,6.51092679 9.46307174,6.51137014 9.46307174,6.51137014 C8.30576644,6.63728225 6.72681868,7.11580736 6.56214225,7.16620176 C6.56066797,7.1667929 6.55993083,7.16782739 6.5581617,7.16841852 C6.55993083,7.16915745 6.56155254,7.16974858 6.56317424,7.1704875 C6.62008122,7.18703933 7.07489484,7.32551309 7.65870745,7.66881569 C7.82928099,7.62285482 9.97317065,7.05285131 12.0175468,7.01265402 L12.0175468,7.01294959 C12.0175468,7.01294959 12.7729649,7.34901077 13.5008141,7.84970351 C10.8592095,7.83980197 8.67227102,8.34817948 8.61315262,8.3620712 C8.92260279,8.63709752 9.23028384,8.96813404 9.50671026,9.36582122 C12.4023324,8.93104022 14.900785,9.11961281 14.900785,9.11961281 C14.900785,9.11961281 15.2407526,9.5348863 15.3934875,9.75818817 C15.58647,10.0395692 15.7835804,10.388931 15.9366101,10.6957309 C12.9811325,10.3493248 10.154359,10.5973066 10.1524424,10.5973066 C10.3473415,11.101694 10.479289,11.6412539 10.5516759,12.2084496 C10.8783751,12.206085 13.3815454,12.2108141 16.5696635,12.7861378 C16.6715358,13.5188517 16.6817083,14.3037334 16.6013604,15.1319158 C16.0595646,14.990782 13.4419906,14.3353592 10.5857316,14.051318 C10.5282349,14.766889 10.3923068,15.5117211 10.183697,16.2756175 C10.5034671,16.3511352 14.0321426,17.194096 16.0087021,17.9968596 C15.970371,18.1209983 15.9302707,18.2458759 15.8886962,18.3716402 C15.605783,19.2222859 15.2519571,20.0766261 14.8334107,20.9278629 C13.2419316,20.1425378 9.33908528,18.6131195 9.33908528,18.6131195 C8.9489923,19.4880018 8.47206457,20.37382 7.91434661,21.2580127 C7.91434661,21.2580127 11.2605069,23.1719653 12.8720362,24.2317256 C12.1279699,25.2975449 11.2874862,26.343709 10.3609048,27.3547005 C9.19239499,26.3039551 6.26890909,24.0332514 6.04821023,23.8619696 C5.1052644,24.987346 3.9178839,26.1706538 3.56214151,26.5206067 L7.07032459,30.5528975 C7.03789056,30.5821588 7.00412967,30.6120112 6.97007394,30.6417158 C6.21082268,31.2727541 5.39289531,31.8665509 4.70175553,32.3424159 C4.10157847,32.7510391 3.60651717,33.067445 3.43550135,33.1778398 C3.39481138,33.1159182 1.09789206,29.4394916 0.752911875,28.8545619 C0.50036869,29.0419522 0.246056377,29.2213622 -0.00884564568,29.3975209 L-0.00884564568,36.9550551 C0.404540862,36.7555465 0.81792737,36.5490921 1.23057674,36.329337 C3.20846311,35.3530748 5.1278208,34.114348 6.91419894,32.6832062 C8.05912035,31.7718213 9.25976932,30.7027506 10.4452333,29.4684573 C11.8539023,28.0201725 13.0771077,26.5031681 14.0978952,24.9659173 C17.9672755,19.2412022 19.0036903,13.2719044 16.1528861,9.42552602 Z M22.3010522,10.8049434 C22.1068902,10.5389319 21.8873708,10.267748 21.6355648,10.0264164 C21.4147185,9.81508507 21.1991796,9.62459128 20.972731,9.45330944 C18.4760476,7.56669684 13.881914,6.62324275 13.881914,6.62324275 C14.3203632,6.85748065 14.6852461,7.0977777 14.6876049,7.09940332 C14.7094242,7.10472355 16.5617024,7.57024366 18.2046337,8.37581512 C18.2046337,8.37581512 16.7101618,8.03561598 15.7514413,7.90305359 C16.1477262,8.25197199 16.5244033,8.65350156 16.8541984,9.07306079 C16.8541984,9.07306079 19.9025553,9.63050265 21.241049,10.3661722 C21.241049,10.3661722 21.8817686,11.0269152 22.4055782,12.1861342 C20.3162367,11.3357841 17.9501739,10.8924316 17.9501739,10.8924316 C18.2641943,11.5979532 18.4890212,12.3535736 18.6268658,13.1394898 C18.6268658,13.1394898 21.2282228,13.7777696 23.182963,14.7185635 C23.3520623,15.6490126 23.413687,16.6107919 23.3780095,17.5840984 C21.0691486,16.4235494 18.7775366,15.6948257 18.7775366,15.6948257 C18.7313919,16.6979846 18.570696,17.7374984 18.3003141,18.7996232 C18.3003141,18.7996232 21.4523125,20.2106663 22.8687952,21.0672233 C22.5561016,22.3214675 22.1169153,23.5499972 21.5892725,24.7331572 C19.431967,23.3280254 17.1484636,22.0786581 17.1484636,22.0786581 C16.5749709,23.4592578 15.163943,25.7205032 15.163943,25.7205032 L15.1642378,25.7207988 L15.1642378,25.7205032 L15.1655647,25.7215377 C15.2009472,25.7460699 17.5491713,27.3619419 19.3504396,28.7958916 C18.4557026,30.1550625 17.4467093,31.4607356 16.3485223,32.701827 C15.9696338,32.3385735 12.5080378,29.258456 12.5080378,29.258456 C11.4633671,30.4726507 10.2997224,31.6555151 9.0263917,32.7879851 C9.0263917,32.7879851 9.02668656,32.7882807 9.02698141,32.7885763 L12.3640012,36.5743631 C12.3642961,36.5748065 12.364591,36.5748065 12.3648858,36.5751021 L12.364591,36.5753976 C10.199914,38.3618126 8.04216619,39.7155155 8.04216619,39.7155155 L5.25770436,35.7532743 C5.25770436,35.7532743 3.29854127,37.2472244 -0.00884564568,38.8161011 L-0.00884564568,39.9645318 L10.8512484,39.9645318 C22.9724367,30.7713225 27.2737793,17.6257736 22.3010522,10.8049434 Z M21.5311861,39.9645318 C24.3613505,36.7916059 26.7728209,33.0593169 28.2215902,29.0630854 C29.4784091,25.5959212 30.1626198,21.3614616 29.0495427,17.5948867 C28.9750918,17.3464615 28.8912056,17.0958196 28.7937561,16.8439953 C28.4380137,15.9227089 27.9765659,15.119502 27.4747229,14.4886114 C26.1213391,12.9721981 24.5886836,11.620712 22.9090429,10.4705078 C23.1558364,10.7895738 23.3814004,11.118098 23.5767417,11.4513513 C23.5767417,11.4513513 25.6217076,12.9717548 26.8089406,14.5166904 C25.2860153,13.4291467 24.4237123,12.9890455 24.3119623,12.9333309 C24.3076869,12.9314097 24.3031166,12.9293407 24.2989887,12.9269762 C24.8776413,14.3563446 25.0514583,15.5400957 25.0519005,15.5420169 C25.0519005,15.5420169 26.8589185,16.4870966 28.4856328,17.8991743 C28.7107545,18.9434171 28.8036337,20.0130789 28.7884487,21.0840707 C27.1490557,19.6382983 25.2515173,18.5089317 25.2515173,18.5089317 C25.2167244,19.7334713 25.0477726,20.9733804 24.7794547,22.1788558 C24.7794547,22.1788558 26.5711402,23.3163505 28.3169758,24.910646 C28.3169758,24.910646 27.81587,27.1699703 27.0069357,28.9467792 C25.331423,27.3833706 23.6980745,26.1669592 23.5695178,26.0716384 C23.5695178,26.0716384 22.7378796,28.2455434 21.3906878,30.4274287 C23.0679697,31.8901964 24.6442637,33.4063141 24.6442637,33.4063141 C23.6812678,34.9125302 22.5914842,36.3463322 21.4160453,37.6870301 L21.4157505,37.6882124 L18.4153075,34.6933663 C17.1965249,36.2054939 15.8599478,37.6301332 14.440664,38.9414221 C14.5080383,39.0172353 15.1129331,39.6895055 15.3604637,39.9645318 L21.5311861,39.9645318 Z M26.869091,39.9645318 L28.3671011,39.9645318 C32.6314395,33.6500102 32.845799,28.0535718 32.845799,26.9812499 C32.845799,24.9557202 32.5062736,23.094822 31.9391203,21.6211184 C31.9391203,21.6211184 31.0541134,19.3309072 29.6762567,17.2928158 C29.8267801,17.7481388 30.115443,18.6713465 30.2752543,19.4962777 C30.2858691,19.5511056 30.2944199,19.5995788 30.3019387,19.644653 C30.5735,20.0983504 31.7980322,22.2623538 31.9615292,24.641531 C31.9618241,24.6459646 31.9622664,24.6489203 31.9622664,24.6489203 C31.9622664,24.6489203 31.0970148,23.43443 30.4554106,22.6668391 C30.4325594,23.9748767 30.2628704,25.2835054 29.9899822,26.5477989 C29.9899822,26.5477989 31.2715689,28.0355421 31.845209,28.9952524 C31.845209,28.9952524 31.4549686,31.0884673 30.6190551,33.0938984 C29.7683988,31.8538415 28.6818587,30.6492528 28.6818587,30.6492528 C28.0460042,32.2247797 27.2410504,33.8097648 26.3471979,35.2754881 C26.3471979,35.2754881 27.9714059,37.1805738 28.3278854,37.7236806 C27.8506628,38.5285131 27.3855293,39.2293056 26.869091,39.9645318 Z M29.7162095,39.9645318 C30.5073051,38.4797443 31.3844983,36.6337724 31.9714069,35.0657824 C31.9718492,35.0663736 31.972144,35.0674081 31.9724389,35.0682948 C31.9913096,35.1183936 32.283953,35.8938171 32.5018508,36.6993885 C32.9546004,35.0956348 33.2780562,33.4281861 33.4571805,31.7118209 L33.4574754,31.7107864 C33.4013055,31.4882234 33.2808573,31.1276301 33.2128932,30.907875 C33.2128932,30.907875 33.5021459,29.4507232 33.6168444,27.7880036 C33.7728226,28.9291929 33.8539077,30.0887074 33.8539077,31.2609314 C33.8539077,33.2916336 33.6144856,35.2847986 33.1515634,37.2093917 C32.9133207,38.1578704 32.6230361,39.0906841 32.3078363,39.9645318 L29.7162095,39.9645318 L29.7162095,39.9645318 Z" id="Fill-3" fill="#1414D2" mask="url(#mask-2)"></path>
            </g>
            <path d="M61,20 L61,15 L63.9008495,15 L63.9008495,19.8537872 C63.9008495,21.7209971 64.7860571,22.5071908 66.4894838,22.5071908 C68.1929105,22.5071908 69.0781181,21.7209971 69.0781181,19.8537872 L69.0781181,15 L71.9789676,15 L71.9789676,20 C71.9789676,23.4935283 70.2157296,25 66.4894838,25 C62.763238,25 61,23.4935283 61,20 L61,20 Z M85.0357808,20.7034995 L79.6324253,15 L76.7710513,15 L76.7710513,24.7998562 L79.4721309,24.7998562 L79.4721309,18.5882071 L85.3683318,24.7998562 L87.7368604,24.7998562 L87.7368604,15 L85.0357808,15 L85.0357808,20.7034995 L85.0357808,20.7034995 Z M92.7945064,24.8010547 L95.6953559,24.8010547 L95.6953559,15 L92.7945064,15 L92.7945064,24.7998562 L92.7945064,24.8010547 Z M128.741115,15.0011985 L134.331082,15.0011985 C138.217622,15.0011985 140,16.6922339 140,19.9017258 C140,23.1112176 138.216426,24.8022531 134.331082,24.8022531 L128.741115,24.8022531 L128.741115,15 L128.741115,15.0011985 Z M131.641965,22.1644295 L134.223422,22.1644295 C136.11346,22.1644295 136.965173,21.4717162 136.965173,19.9005273 C136.965173,18.3293384 136.11346,17.6366251 134.223422,17.6366251 L131.641965,17.6366251 L131.641965,22.1644295 Z M117.62817,20.9407958 L123.657152,20.9407958 L123.657152,18.8602589 L117.62817,18.8602589 L117.62817,17.4005273 L124.122485,17.4005273 L124.122485,15 L114.726125,15 L114.726125,24.7998562 L124.175118,24.7998562 L124.175118,22.3993289 L117.626974,22.3993289 L117.626974,20.9395973 L117.62817,20.9407958 Z M99.9945943,17.6366251 L103.760316,17.6366251 L103.760316,24.7998562 L106.661165,24.7998562 L106.661165,17.6366251 L110.426886,17.6366251 L110.426886,15 L99.993398,15 L99.993398,17.6366251 L99.9945943,17.6366251 Z" id="Shape" fill="#FFFFFF" fill-rule="nonzero"></path>
        </g>
    </g>
</svg>