<?xml version="1.0" encoding="UTF-8"?>
<svg width="24px" height="24px" viewBox="0 0 24 24" version="1.1" xmlns="http://www.w3.org/2000/svg" xmlns:xlink="http://www.w3.org/1999/xlink">
    <!-- Generator: Sketch 61 (89581) - https://sketch.com -->
    <title>X Global Icons/Digital/language</title>
    <desc>Created with Sketch.</desc>
    <defs>
        <path d="M16.5943381,18.333515 C15.5360764,21.800367 13.7003902,24 11.9996987,24 C10.2990071,24 8.46452624,21.800367 7.4062646,18.333515 L7.4062646,18.333515 Z M5.30444609,18.333515 C5.81308665,20.200743 6.52301388,21.8267674 7.41976406,23.0939864 C5.0621789,22.133972 3.09390867,20.4539468 1.76806834,18.333515 L1.76806834,18.333515 Z M22.2319317,18.333275 C20.9060913,20.4537068 18.9378211,22.133732 16.5802359,23.0937464 C17.4769861,21.8265274 18.1869134,20.200503 18.6967592,18.333275 L18.6967592,18.333275 Z M4.51388366,13.000275 C4.55365887,14.1606924 4.67539512,15.2803092 4.86221807,16.333925 L4.86221807,16.333925 L0.764166152,16.333925 C0.348334413,15.2935094 0.080755729,14.1738926 0,13.000275 L0,13.000275 Z M17.4769861,13.000035 C17.4372109,14.1868528 17.3034216,15.2932694 17.0888765,16.333685 L17.0888765,16.333685 L6.91124403,16.333685 C6.69669896,15.2932694 6.56290962,14.1868528 6.52313441,13.000035 L6.52313441,13.000035 Z M23.9992768,13.000035 C23.9197264,14.1736526 23.6521477,15.2932694 23.236316,16.333685 L23.236316,16.333685 L19.1382641,16.333685 C19.3262923,15.2800692 19.4468233,14.1604524 19.4865985,13.000035 L19.4865985,13.000035 Z M4.86173595,7.666915 C4.67491299,8.72053081 4.55438205,9.8401476 4.51340153,11.000565 L4.51340153,11.000565 L0.000723185633,11.000565 C0.0814789146,9.8269474 0.349057599,8.70733061 0.763684028,7.666915 L0.763684028,7.666915 Z M17.088997,7.666915 C17.3035421,8.70733061 17.4373314,9.81374721 17.4771067,11.000565 L17.4771067,11.000565 L6.52325494,11.000565 C6.56303015,9.81374721 6.69681949,8.70733061 6.91136456,7.666915 L6.91136456,7.666915 Z M23.2370392,7.666795 C23.6516656,8.70721061 23.9192443,9.8268274 24,11.000445 L24,11.000445 L19.4861163,11.000445 C19.4463411,9.8400276 19.3258102,8.72041081 19.1377819,7.666795 L19.1377819,7.666795 Z M7.42012565,0.906853603 C6.52337547,2.17287259 5.81344824,3.800097 5.30360237,5.66612499 L5.30360237,5.66612499 L1.76842993,5.66612499 C3.09427026,3.5468932 5.06254049,1.866868 7.42012565,0.906853603 Z M12.0003013,0 C13.7009929,0 15.5354738,2.19963299 16.5937354,5.666485 L16.5937354,5.666485 L7.40566194,5.666485 C8.46392358,2.19963299 10.2996098,0 12.0003013,0 Z M16.5802359,0.907213608 C18.9378211,1.86602799 20.9060913,3.54725321 22.2319317,5.666485 L22.2319317,5.666485 L18.6967592,5.666485 C18.1881187,3.80045701 17.4769861,2.1732326 16.5802359,0.907213608 Z" id="path-1"></path>
    </defs>
    <g id="Page-1" stroke="none" stroke-width="1" fill="none" fill-rule="evenodd">
        <g id="X-Global-Icons/Digital/language">
            <mask id="mask-2" fill="white">
                <use xlink:href="#path-1"></use>
            </mask>
            <use id="Mask" fill="#FFFFFF" fill-rule="evenodd" xlink:href="#path-1"></use>
        </g>
    </g>
</svg>