<?xml version="1.0" encoding="UTF-8"?>
<svg width="17px" height="16px" viewBox="0 0 17 16" version="1.1" xmlns="http://www.w3.org/2000/svg" xmlns:xlink="http://www.w3.org/1999/xlink">
    <!-- Generator: Sketch 48.2 (47327) - http://www.bohemiancoding.com/sketch -->
    <title>Page 1</title>
    <desc></desc>
    <defs></defs>
    <g id="35-Content---our-fleet-Copy" stroke="none" stroke-width="1" fill="none" fill-rule="evenodd" transform="translate(-1049.000000, -503.000000)">
        <g id="Group" transform="translate(0.000000, -1573.000000)" fill="#949494">
            <g id="FOOTER" transform="translate(0.000000, 1649.000000)">
                <g id="Bottom-part">
                    <g transform="translate(0.000000, 2.000000)">
                        <g id="social-icons" transform="translate(993.000000, 424.000000)">
                            <g id="Page-1" transform="translate(56.333333, 1.000000)">
                                <path d="M14.4416,12.9082667 C14.4416,13.7541333 13.7530667,14.4416 12.9072,14.4416 L3.09173333,14.4416 C2.24586667,14.4416 1.5584,13.7541333 1.5584,12.9082667 L1.5584,6.3584 L3.94666667,6.3584 C3.7408,6.8656 3.62506667,7.41973333 3.62506667,8 C3.62506667,10.4122667 5.5872,12.3749333 8,12.3749333 C10.4122667,12.3749333 12.3749333,10.4122667 12.3749333,8 C12.3749333,7.41973333 12.2581333,6.8656 12.0522667,6.3584 L14.4416,6.3584 L14.4416,12.9082667 Z M5.7168,6.3584 C6.22933333,5.64906667 7.06026667,5.18453333 8,5.18453333 C8.93973333,5.18453333 9.77066667,5.64906667 10.2832,6.3584 C10.6165333,6.8208 10.8165333,7.3872 10.8165333,8 C10.8165333,9.552 9.552,10.8154667 8,10.8154667 C6.44693333,10.8154667 5.18346667,9.552 5.18346667,8 C5.18346667,7.3872 5.38346667,6.8208 5.7168,6.3584 Z M13.7946667,1.8448 L14.1477333,1.84266667 L14.1477333,2.19573333 L14.1477333,4.55413333 L11.4458667,4.56373333 L11.4362667,1.85226667 L13.7946667,1.8448 Z M12.9072,0 L3.09173333,0 C1.38613333,0 0,1.38613333 0,3.09173333 L0,6.3584 L0,12.9082667 C0,14.6133333 1.38613333,16 3.09173333,16 L12.9072,16 C14.6122667,16 16,14.6133333 16,12.9082667 L16,6.3584 L16,3.09173333 C16,1.38613333 14.6122667,0 12.9072,0 Z" id="Fill-1"></path>
                            </g>
                        </g>
                    </g>
                </g>
            </g>
        </g>
    </g>
</svg>
