<?xml version="1.0" encoding="UTF-8"?>
<svg width="18px" height="14px" viewBox="0 0 18 14" version="1.1" xmlns="http://www.w3.org/2000/svg" xmlns:xlink="http://www.w3.org/1999/xlink">
    <!-- Generator: Sketch 48.2 (47327) - http://www.bohemiancoding.com/sketch -->
    <title>Page 1</title>
    <desc></desc>
    <defs>
        <polygon id="path-1" points="3.03576608e-20 0.000112 3.03576608e-20 13.653248 16.800448 13.653248 16.800448 0.000112 0 0.000112"></polygon>
    </defs>
    <g id="35-Content---our-fleet-Copy" stroke="none" stroke-width="1" fill="none" fill-rule="evenodd" transform="translate(-1103.000000, -504.000000)">
        <g id="Group" transform="translate(0.000000, -1573.000000)">
            <g id="FOOTER" transform="translate(0.000000, 1649.000000)">
                <g id="Bottom-part">
                    <g transform="translate(0.000000, 2.000000)">
                        <g id="social-icons" transform="translate(993.000000, 424.000000)">
                            <g id="Page-1" transform="translate(110.666667, 2.000000)">
                                <mask id="mask-2" fill="white">
                                    <use xlink:href="#path-1"></use>
                                </mask>
                                <g id="Clip-2"></g>
                                <path d="M16.336768,0.251552 C15.670928,0.646352 14.932288,0.934192 14.147168,1.088192 C13.519408,0.418992 12.623408,0.000112 11.631648,0.000112 C9.728208,0.000112 8.184848,1.543472 8.184848,3.446352 C8.184848,3.716272 8.215648,3.978912 8.273888,4.231472 C5.408928,4.088672 2.869328,2.715552 1.169728,0.631232 C0.872928,1.139712 0.702688,1.731632 0.702688,2.363312 C0.702688,3.558912 1.311408,4.614512 2.235968,5.232752 C1.671488,5.213712 1.139488,5.059712 0.674688,4.801552 L0.674688,4.844112 C0.674688,6.514592 1.862448,7.907872 3.439968,8.224832 C3.150448,8.303792 2.845808,8.345232 2.531648,8.345232 C2.309328,8.345232 2.093168,8.323392 1.882608,8.284192 C2.322208,9.652272 3.594528,10.649632 5.102608,10.677072 C3.922688,11.601632 2.437008,12.152672 0.821968,12.152672 C0.543648,12.152672 0.269808,12.136432 -0.000112,12.104512 C1.525328,13.082272 3.336928,13.653472 5.283488,13.653472 C11.623808,13.653472 15.089648,8.401232 15.089648,3.846752 C15.089648,3.696672 15.087968,3.548272 15.081248,3.400432 C15.753808,2.914912 16.339008,2.307872 16.800448,1.615712 C16.182768,1.890112 15.518608,2.074912 14.820848,2.157792 C15.532608,1.732752 16.078608,1.056272 16.336768,0.251552" id="Fill-1" fill="#949494" mask="url(#mask-2)"></path>
                            </g>
                        </g>
                    </g>
                </g>
            </g>
        </g>
    </g>
</svg>
